<?xml version='1.0' encoding='utf-8'?>
<svg height="111.41mm" viewBox="0.0 0.0 111.69 111.41" width="111.69mm" xmlns="http://www.w3.org/2000/svg" xmlns:cc="http://creativecommons.org/ns#" xmlns:dc="http://purl.org/dc/elements/1.1/" xmlns:inkscape="http://www.inkscape.org/namespaces/inkscape" xmlns:rdf="http://www.w3.org/1999/02/22-rdf-syntax-ns#" xmlns:svg="http://www.w3.org/2000/svg" xmlns:xlink="http://www.w3.org/1999/xlink">
<!--
HolePattern - Generate hole patterns in different simple shapes

Created with Boxes.py (https://boxes.hackerspace-bamberg.de/)
Command line (remove spaces between dashes): boxes HolePattern
-->
<title>HolePattern</title>
<metadata>
<rdf:RDF><cc:Work>
<dc:title>Holes - HolePattern</dc:title>
<dc:source>boxes HolePattern</dc:source>
<dc:description>Generate hole patterns in different simple shapes

Created with Boxes.py (https://boxes.hackerspace-bamberg.de/)
Command line: boxes HolePattern
Command line short: boxes HolePattern
</dc:description>
</cc:Work></rdf:RDF></metadata>
<g id="p-0" style="fill:none;stroke-linecap:round;stroke-linejoin:round;">
  <path d="M 15.291 98.734 C 15.291 99.251 15.142 99.758 14.862 100.194 C 14.582 100.629 14.183 100.975 13.712 101.190 C 13.241 101.405 12.719 101.480 12.206 101.406 C 11.694 101.333 11.214 101.113 10.823 100.774 C 10.431 100.435 10.146 99.991 10.000 99.495 C 9.854 98.998 9.854 98.470 10.000 97.973 C 10.146 97.477 10.431 97.032 10.823 96.693 C 11.214 96.354 11.694 96.135 12.206 96.061 C 12.719 95.988 13.241 96.063 13.712 96.278 C 14.183 96.493 14.582 96.839 14.862 97.274 C 15.142 97.710 15.291 98.216 15.291 98.734 Z" stroke="rgb(255,0,255)" stroke-width="0.20" />
  <path d="M 24.891 98.734 C 24.891 99.251 24.742 99.758 24.462 100.194 C 24.182 100.629 23.783 100.975 23.312 101.190 C 22.841 101.405 22.319 101.480 21.806 101.406 C 21.294 101.333 20.814 101.113 20.423 100.774 C 20.031 100.435 19.746 99.991 19.600 99.495 C 19.454 98.998 19.454 98.470 19.600 97.973 C 19.746 97.477 20.031 97.032 20.423 96.693 C 20.814 96.354 21.294 96.135 21.806 96.061 C 22.319 95.988 22.841 96.063 23.312 96.278 C 23.783 96.493 24.182 96.839 24.462 97.274 C 24.742 97.710 24.891 98.216 24.891 98.734 Z" stroke="rgb(255,0,255)" stroke-width="0.20" />
  <path d="M 34.491 98.734 C 34.491 99.251 34.342 99.758 34.062 100.194 C 33.782 100.629 33.383 100.975 32.912 101.190 C 32.441 101.405 31.919 101.480 31.406 101.406 C 30.894 101.333 30.414 101.113 30.023 100.774 C 29.631 100.435 29.346 99.991 29.200 99.495 C 29.054 98.998 29.054 98.470 29.200 97.973 C 29.346 97.477 29.631 97.032 30.023 96.693 C 30.414 96.354 30.894 96.135 31.406 96.061 C 31.919 95.988 32.441 96.063 32.912 96.278 C 33.383 96.493 33.782 96.839 34.062 97.274 C 34.342 97.710 34.491 98.216 34.491 98.734 Z" stroke="rgb(255,0,255)" stroke-width="0.20" />
  <path d="M 44.091 98.734 C 44.091 99.251 43.942 99.758 43.662 100.194 C 43.382 100.629 42.983 100.975 42.512 101.190 C 42.041 101.405 41.519 101.480 41.006 101.406 C 40.494 101.333 40.014 101.113 39.623 100.774 C 39.231 100.435 38.946 99.991 38.800 99.495 C 38.654 98.998 38.654 98.470 38.800 97.973 C 38.946 97.477 39.231 97.032 39.623 96.693 C 40.014 96.354 40.494 96.135 41.006 96.061 C 41.519 95.988 42.041 96.063 42.512 96.278 C 42.983 96.493 43.382 96.839 43.662 97.274 C 43.942 97.710 44.091 98.216 44.091 98.734 Z" stroke="rgb(255,0,255)" stroke-width="0.20" />
  <path d="M 53.691 98.734 C 53.691 99.251 53.542 99.758 53.262 100.194 C 52.982 100.629 52.583 100.975 52.112 101.190 C 51.641 101.405 51.119 101.480 50.606 101.406 C 50.094 101.333 49.614 101.113 49.223 100.774 C 48.831 100.435 48.546 99.991 48.400 99.495 C 48.254 98.998 48.254 98.470 48.400 97.973 C 48.546 97.477 48.831 97.032 49.223 96.693 C 49.614 96.354 50.094 96.135 50.606 96.061 C 51.119 95.988 51.641 96.063 52.112 96.278 C 52.583 96.493 52.982 96.839 53.262 97.274 C 53.542 97.710 53.691 98.216 53.691 98.734 Z" stroke="rgb(255,0,255)" stroke-width="0.20" />
  <path d="M 63.291 98.734 C 63.291 99.251 63.142 99.758 62.862 100.194 C 62.582 100.629 62.183 100.975 61.712 101.190 C 61.241 101.405 60.719 101.480 60.206 101.406 C 59.694 101.333 59.214 101.113 58.823 100.774 C 58.431 100.435 58.146 99.991 58.000 99.495 C 57.854 98.998 57.854 98.470 58.000 97.973 C 58.146 97.477 58.431 97.032 58.823 96.693 C 59.214 96.354 59.694 96.135 60.206 96.061 C 60.719 95.988 61.241 96.063 61.712 96.278 C 62.183 96.493 62.582 96.839 62.862 97.274 C 63.142 97.710 63.291 98.216 63.291 98.734 Z" stroke="rgb(255,0,255)" stroke-width="0.20" />
  <path d="M 72.891 98.734 C 72.891 99.251 72.742 99.758 72.462 100.194 C 72.182 100.629 71.783 100.975 71.312 101.190 C 70.841 101.405 70.319 101.480 69.806 101.406 C 69.294 101.333 68.814 101.113 68.423 100.774 C 68.031 100.435 67.746 99.991 67.600 99.495 C 67.454 98.998 67.454 98.470 67.600 97.973 C 67.746 97.477 68.031 97.032 68.423 96.693 C 68.814 96.354 69.294 96.135 69.806 96.061 C 70.319 95.988 70.841 96.063 71.312 96.278 C 71.783 96.493 72.182 96.839 72.462 97.274 C 72.742 97.710 72.891 98.216 72.891 98.734 Z" stroke="rgb(255,0,255)" stroke-width="0.20" />
  <path d="M 82.491 98.734 C 82.491 99.251 82.342 99.758 82.062 100.194 C 81.782 100.629 81.383 100.975 80.912 101.190 C 80.441 101.405 79.919 101.480 79.406 101.406 C 78.894 101.333 78.414 101.113 78.023 100.774 C 77.631 100.435 77.346 99.991 77.200 99.495 C 77.054 98.998 77.054 98.470 77.200 97.973 C 77.346 97.477 77.631 97.032 78.023 96.693 C 78.414 96.354 78.894 96.135 79.406 96.061 C 79.919 95.988 80.441 96.063 80.912 96.278 C 81.383 96.493 81.782 96.839 82.062 97.274 C 82.342 97.710 82.491 98.216 82.491 98.734 Z" stroke="rgb(255,0,255)" stroke-width="0.20" />
  <path d="M 92.091 98.734 C 92.091 99.251 91.942 99.758 91.662 100.194 C 91.382 100.629 90.983 100.975 90.512 101.190 C 90.041 101.405 89.519 101.480 89.006 101.406 C 88.494 101.333 88.014 101.113 87.623 100.774 C 87.231 100.435 86.946 99.991 86.800 99.495 C 86.654 98.998 86.654 98.470 86.800 97.973 C 86.946 97.477 87.231 97.032 87.623 96.693 C 88.014 96.354 88.494 96.135 89.006 96.061 C 89.519 95.988 90.041 96.063 90.512 96.278 C 90.983 96.493 91.382 96.839 91.662 97.274 C 91.942 97.710 92.091 98.216 92.091 98.734 Z" stroke="rgb(255,0,255)" stroke-width="0.20" />
  <path d="M 101.691 98.734 C 101.691 99.251 101.542 99.758 101.262 100.194 C 100.982 100.629 100.583 100.975 100.112 101.190 C 99.641 101.405 99.119 101.480 98.606 101.406 C 98.094 101.333 97.614 101.113 97.223 100.774 C 96.831 100.435 96.546 99.991 96.400 99.495 C 96.254 98.998 96.254 98.470 96.400 97.973 C 96.546 97.477 96.831 97.032 97.223 96.693 C 97.614 96.354 98.094 96.135 98.606 96.061 C 99.119 95.988 99.641 96.063 100.112 96.278 C 100.583 96.493 100.982 96.839 101.262 97.274 C 101.542 97.710 101.691 98.216 101.691 98.734 Z" stroke="rgb(255,0,255)" stroke-width="0.20" />
  <path d="M 20.091 90.128 C 20.091 90.645 19.942 91.152 19.662 91.587 C 19.382 92.023 18.983 92.369 18.512 92.584 C 18.041 92.799 17.519 92.874 17.006 92.800 C 16.494 92.727 16.014 92.507 15.623 92.168 C 15.231 91.829 14.946 91.385 14.800 90.888 C 14.654 90.392 14.654 89.864 14.800 89.367 C 14.946 88.870 15.231 88.426 15.623 88.087 C 16.014 87.748 16.494 87.529 17.006 87.455 C 17.519 87.382 18.041 87.457 18.512 87.672 C 18.983 87.887 19.382 88.233 19.662 88.668 C 19.942 89.103 20.091 89.610 20.091 90.128 Z" stroke="rgb(255,0,255)" stroke-width="0.20" />
  <path d="M 29.691 90.128 C 29.691 90.645 29.542 91.152 29.262 91.587 C 28.982 92.023 28.583 92.369 28.112 92.584 C 27.641 92.799 27.119 92.874 26.606 92.800 C 26.094 92.727 25.614 92.507 25.223 92.168 C 24.831 91.829 24.546 91.385 24.400 90.888 C 24.254 90.392 24.254 89.864 24.400 89.367 C 24.546 88.870 24.831 88.426 25.223 88.087 C 25.614 87.748 26.094 87.529 26.606 87.455 C 27.119 87.382 27.641 87.457 28.112 87.672 C 28.583 87.887 28.982 88.233 29.262 88.668 C 29.542 89.103 29.691 89.610 29.691 90.128 Z" stroke="rgb(255,0,255)" stroke-width="0.20" />
  <path d="M 39.291 90.128 C 39.291 90.645 39.142 91.152 38.862 91.587 C 38.582 92.023 38.183 92.369 37.712 92.584 C 37.241 92.799 36.719 92.874 36.206 92.800 C 35.694 92.727 35.214 92.507 34.823 92.168 C 34.431 91.829 34.146 91.385 34.000 90.888 C 33.854 90.392 33.854 89.864 34.000 89.367 C 34.146 88.870 34.431 88.426 34.823 88.087 C 35.214 87.748 35.694 87.529 36.206 87.455 C 36.719 87.382 37.241 87.457 37.712 87.672 C 38.183 87.887 38.582 88.233 38.862 88.668 C 39.142 89.103 39.291 89.610 39.291 90.128 Z" stroke="rgb(255,0,255)" stroke-width="0.20" />
  <path d="M 48.891 90.128 C 48.891 90.645 48.742 91.152 48.462 91.587 C 48.182 92.023 47.783 92.369 47.312 92.584 C 46.841 92.799 46.319 92.874 45.806 92.800 C 45.294 92.727 44.814 92.507 44.423 92.168 C 44.031 91.829 43.746 91.385 43.600 90.888 C 43.454 90.392 43.454 89.864 43.600 89.367 C 43.746 88.870 44.031 88.426 44.423 88.087 C 44.814 87.748 45.294 87.529 45.806 87.455 C 46.319 87.382 46.841 87.457 47.312 87.672 C 47.783 87.887 48.182 88.233 48.462 88.668 C 48.742 89.103 48.891 89.610 48.891 90.128 Z" stroke="rgb(255,0,255)" stroke-width="0.20" />
  <path d="M 58.491 90.128 C 58.491 90.645 58.342 91.152 58.062 91.587 C 57.782 92.023 57.383 92.369 56.912 92.584 C 56.441 92.799 55.919 92.874 55.406 92.800 C 54.894 92.727 54.414 92.507 54.023 92.168 C 53.631 91.829 53.346 91.385 53.200 90.888 C 53.054 90.392 53.054 89.864 53.200 89.367 C 53.346 88.870 53.631 88.426 54.023 88.087 C 54.414 87.748 54.894 87.529 55.406 87.455 C 55.919 87.382 56.441 87.457 56.912 87.672 C 57.383 87.887 57.782 88.233 58.062 88.668 C 58.342 89.103 58.491 89.610 58.491 90.128 Z" stroke="rgb(255,0,255)" stroke-width="0.20" />
  <path d="M 68.091 90.128 C 68.091 90.645 67.942 91.152 67.662 91.587 C 67.382 92.023 66.983 92.369 66.512 92.584 C 66.041 92.799 65.519 92.874 65.006 92.800 C 64.494 92.727 64.014 92.507 63.623 92.168 C 63.231 91.829 62.946 91.385 62.800 90.888 C 62.654 90.392 62.654 89.864 62.800 89.367 C 62.946 88.870 63.231 88.426 63.623 88.087 C 64.014 87.748 64.494 87.529 65.006 87.455 C 65.519 87.382 66.041 87.457 66.512 87.672 C 66.983 87.887 67.382 88.233 67.662 88.668 C 67.942 89.103 68.091 89.610 68.091 90.128 Z" stroke="rgb(255,0,255)" stroke-width="0.20" />
  <path d="M 77.691 90.128 C 77.691 90.645 77.542 91.152 77.262 91.587 C 76.982 92.023 76.583 92.369 76.112 92.584 C 75.641 92.799 75.119 92.874 74.606 92.800 C 74.094 92.727 73.614 92.507 73.223 92.168 C 72.831 91.829 72.546 91.385 72.400 90.888 C 72.254 90.392 72.254 89.864 72.400 89.367 C 72.546 88.870 72.831 88.426 73.223 88.087 C 73.614 87.748 74.094 87.529 74.606 87.455 C 75.119 87.382 75.641 87.457 76.112 87.672 C 76.583 87.887 76.982 88.233 77.262 88.668 C 77.542 89.103 77.691 89.610 77.691 90.128 Z" stroke="rgb(255,0,255)" stroke-width="0.20" />
  <path d="M 87.291 90.128 C 87.291 90.645 87.142 91.152 86.862 91.587 C 86.582 92.023 86.183 92.369 85.712 92.584 C 85.241 92.799 84.719 92.874 84.206 92.800 C 83.694 92.727 83.214 92.507 82.823 92.168 C 82.431 91.829 82.146 91.385 82.000 90.888 C 81.854 90.392 81.854 89.864 82.000 89.367 C 82.146 88.870 82.431 88.426 82.823 88.087 C 83.214 87.748 83.694 87.529 84.206 87.455 C 84.719 87.382 85.241 87.457 85.712 87.672 C 86.183 87.887 86.582 88.233 86.862 88.668 C 87.142 89.103 87.291 89.610 87.291 90.128 Z" stroke="rgb(255,0,255)" stroke-width="0.20" />
  <path d="M 96.891 90.128 C 96.891 90.645 96.742 91.152 96.462 91.587 C 96.182 92.023 95.783 92.369 95.312 92.584 C 94.841 92.799 94.319 92.874 93.806 92.800 C 93.294 92.727 92.814 92.507 92.423 92.168 C 92.031 91.829 91.746 91.385 91.600 90.888 C 91.454 90.392 91.454 89.864 91.600 89.367 C 91.746 88.870 92.031 88.426 92.423 88.087 C 92.814 87.748 93.294 87.529 93.806 87.455 C 94.319 87.382 94.841 87.457 95.312 87.672 C 95.783 87.887 96.182 88.233 96.462 88.668 C 96.742 89.103 96.891 89.610 96.891 90.128 Z" stroke="rgb(255,0,255)" stroke-width="0.20" />
  <path d="M 15.291 81.522 C 15.291 82.039 15.142 82.546 14.862 82.981 C 14.582 83.417 14.183 83.763 13.712 83.978 C 13.241 84.193 12.719 84.268 12.206 84.194 C 11.694 84.120 11.214 83.901 10.823 83.562 C 10.431 83.223 10.146 82.779 10.000 82.282 C 9.854 81.786 9.854 81.258 10.000 80.761 C 10.146 80.264 10.431 79.820 10.823 79.481 C 11.214 79.142 11.694 78.923 12.206 78.849 C 12.719 78.775 13.241 78.851 13.712 79.066 C 14.183 79.281 14.582 79.626 14.862 80.062 C 15.142 80.497 15.291 81.004 15.291 81.522 Z" stroke="rgb(255,0,255)" stroke-width="0.20" />
  <path d="M 24.891 81.522 C 24.891 82.039 24.742 82.546 24.462 82.981 C 24.182 83.417 23.783 83.763 23.312 83.978 C 22.841 84.193 22.319 84.268 21.806 84.194 C 21.294 84.120 20.814 83.901 20.423 83.562 C 20.031 83.223 19.746 82.779 19.600 82.282 C 19.454 81.786 19.454 81.258 19.600 80.761 C 19.746 80.264 20.031 79.820 20.423 79.481 C 20.814 79.142 21.294 78.923 21.806 78.849 C 22.319 78.775 22.841 78.851 23.312 79.066 C 23.783 79.281 24.182 79.626 24.462 80.062 C 24.742 80.497 24.891 81.004 24.891 81.522 Z" stroke="rgb(255,0,255)" stroke-width="0.20" />
  <path d="M 34.491 81.522 C 34.491 82.039 34.342 82.546 34.062 82.981 C 33.782 83.417 33.383 83.763 32.912 83.978 C 32.441 84.193 31.919 84.268 31.406 84.194 C 30.894 84.120 30.414 83.901 30.023 83.562 C 29.631 83.223 29.346 82.779 29.200 82.282 C 29.054 81.786 29.054 81.258 29.200 80.761 C 29.346 80.264 29.631 79.820 30.023 79.481 C 30.414 79.142 30.894 78.923 31.406 78.849 C 31.919 78.775 32.441 78.851 32.912 79.066 C 33.383 79.281 33.782 79.626 34.062 80.062 C 34.342 80.497 34.491 81.004 34.491 81.522 Z" stroke="rgb(255,0,255)" stroke-width="0.20" />
  <path d="M 44.091 81.522 C 44.091 82.039 43.942 82.546 43.662 82.981 C 43.382 83.417 42.983 83.763 42.512 83.978 C 42.041 84.193 41.519 84.268 41.006 84.194 C 40.494 84.120 40.014 83.901 39.623 83.562 C 39.231 83.223 38.946 82.779 38.800 82.282 C 38.654 81.786 38.654 81.258 38.800 80.761 C 38.946 80.264 39.231 79.820 39.623 79.481 C 40.014 79.142 40.494 78.923 41.006 78.849 C 41.519 78.775 42.041 78.851 42.512 79.066 C 42.983 79.281 43.382 79.626 43.662 80.062 C 43.942 80.497 44.091 81.004 44.091 81.522 Z" stroke="rgb(255,0,255)" stroke-width="0.20" />
  <path d="M 53.691 81.522 C 53.691 82.039 53.542 82.546 53.262 82.981 C 52.982 83.417 52.583 83.763 52.112 83.978 C 51.641 84.193 51.119 84.268 50.606 84.194 C 50.094 84.120 49.614 83.901 49.223 83.562 C 48.831 83.223 48.546 82.779 48.400 82.282 C 48.254 81.786 48.254 81.258 48.400 80.761 C 48.546 80.264 48.831 79.820 49.223 79.481 C 49.614 79.142 50.094 78.923 50.606 78.849 C 51.119 78.775 51.641 78.851 52.112 79.066 C 52.583 79.281 52.982 79.626 53.262 80.062 C 53.542 80.497 53.691 81.004 53.691 81.522 Z" stroke="rgb(255,0,255)" stroke-width="0.20" />
  <path d="M 63.291 81.522 C 63.291 82.039 63.142 82.546 62.862 82.981 C 62.582 83.417 62.183 83.763 61.712 83.978 C 61.241 84.193 60.719 84.268 60.206 84.194 C 59.694 84.120 59.214 83.901 58.823 83.562 C 58.431 83.223 58.146 82.779 58.000 82.282 C 57.854 81.786 57.854 81.258 58.000 80.761 C 58.146 80.264 58.431 79.820 58.823 79.481 C 59.214 79.142 59.694 78.923 60.206 78.849 C 60.719 78.775 61.241 78.851 61.712 79.066 C 62.183 79.281 62.582 79.626 62.862 80.062 C 63.142 80.497 63.291 81.004 63.291 81.522 Z" stroke="rgb(255,0,255)" stroke-width="0.20" />
  <path d="M 72.891 81.522 C 72.891 82.039 72.742 82.546 72.462 82.981 C 72.182 83.417 71.783 83.763 71.312 83.978 C 70.841 84.193 70.319 84.268 69.806 84.194 C 69.294 84.120 68.814 83.901 68.423 83.562 C 68.031 83.223 67.746 82.779 67.600 82.282 C 67.454 81.786 67.454 81.258 67.600 80.761 C 67.746 80.264 68.031 79.820 68.423 79.481 C 68.814 79.142 69.294 78.923 69.806 78.849 C 70.319 78.775 70.841 78.851 71.312 79.066 C 71.783 79.281 72.182 79.626 72.462 80.062 C 72.742 80.497 72.891 81.004 72.891 81.522 Z" stroke="rgb(255,0,255)" stroke-width="0.20" />
  <path d="M 82.491 81.522 C 82.491 82.039 82.342 82.546 82.062 82.981 C 81.782 83.417 81.383 83.763 80.912 83.978 C 80.441 84.193 79.919 84.268 79.406 84.194 C 78.894 84.120 78.414 83.901 78.023 83.562 C 77.631 83.223 77.346 82.779 77.200 82.282 C 77.054 81.786 77.054 81.258 77.200 80.761 C 77.346 80.264 77.631 79.820 78.023 79.481 C 78.414 79.142 78.894 78.923 79.406 78.849 C 79.919 78.775 80.441 78.851 80.912 79.066 C 81.383 79.281 81.782 79.626 82.062 80.062 C 82.342 80.497 82.491 81.004 82.491 81.522 Z" stroke="rgb(255,0,255)" stroke-width="0.20" />
  <path d="M 92.091 81.522 C 92.091 82.039 91.942 82.546 91.662 82.981 C 91.382 83.417 90.983 83.763 90.512 83.978 C 90.041 84.193 89.519 84.268 89.006 84.194 C 88.494 84.120 88.014 83.901 87.623 83.562 C 87.231 83.223 86.946 82.779 86.800 82.282 C 86.654 81.786 86.654 81.258 86.800 80.761 C 86.946 80.264 87.231 79.820 87.623 79.481 C 88.014 79.142 88.494 78.923 89.006 78.849 C 89.519 78.775 90.041 78.851 90.512 79.066 C 90.983 79.281 91.382 79.626 91.662 80.062 C 91.942 80.497 92.091 81.004 92.091 81.522 Z" stroke="rgb(255,0,255)" stroke-width="0.20" />
  <path d="M 101.691 81.522 C 101.691 82.039 101.542 82.546 101.262 82.981 C 100.982 83.417 100.583 83.763 100.112 83.978 C 99.641 84.193 99.119 84.268 98.606 84.194 C 98.094 84.120 97.614 83.901 97.223 83.562 C 96.831 83.223 96.546 82.779 96.400 82.282 C 96.254 81.786 96.254 81.258 96.400 80.761 C 96.546 80.264 96.831 79.820 97.223 79.481 C 97.614 79.142 98.094 78.923 98.606 78.849 C 99.119 78.775 99.641 78.851 100.112 79.066 C 100.583 79.281 100.982 79.626 101.262 80.062 C 101.542 80.497 101.691 81.004 101.691 81.522 Z" stroke="rgb(255,0,255)" stroke-width="0.20" />
  <path d="M 20.091 72.915 C 20.091 73.433 19.942 73.940 19.662 74.375 C 19.382 74.811 18.983 75.156 18.512 75.371 C 18.041 75.587 17.519 75.662 17.006 75.588 C 16.494 75.514 16.014 75.295 15.623 74.956 C 15.231 74.617 14.946 74.173 14.800 73.676 C 14.654 73.180 14.654 72.651 14.800 72.155 C 14.946 71.658 15.231 71.214 15.623 70.875 C 16.014 70.536 16.494 70.317 17.006 70.243 C 17.519 70.169 18.041 70.244 18.512 70.459 C 18.983 70.674 19.382 71.020 19.662 71.456 C 19.942 71.891 20.091 72.398 20.091 72.915 Z" stroke="rgb(255,0,255)" stroke-width="0.20" />
  <path d="M 29.691 72.915 C 29.691 73.433 29.542 73.940 29.262 74.375 C 28.982 74.811 28.583 75.156 28.112 75.371 C 27.641 75.587 27.119 75.662 26.606 75.588 C 26.094 75.514 25.614 75.295 25.223 74.956 C 24.831 74.617 24.546 74.173 24.400 73.676 C 24.254 73.180 24.254 72.651 24.400 72.155 C 24.546 71.658 24.831 71.214 25.223 70.875 C 25.614 70.536 26.094 70.317 26.606 70.243 C 27.119 70.169 27.641 70.244 28.112 70.459 C 28.583 70.674 28.982 71.020 29.262 71.456 C 29.542 71.891 29.691 72.398 29.691 72.915 Z" stroke="rgb(255,0,255)" stroke-width="0.20" />
  <path d="M 39.291 72.915 C 39.291 73.433 39.142 73.940 38.862 74.375 C 38.582 74.811 38.183 75.156 37.712 75.371 C 37.241 75.587 36.719 75.662 36.206 75.588 C 35.694 75.514 35.214 75.295 34.823 74.956 C 34.431 74.617 34.146 74.173 34.000 73.676 C 33.854 73.180 33.854 72.651 34.000 72.155 C 34.146 71.658 34.431 71.214 34.823 70.875 C 35.214 70.536 35.694 70.317 36.206 70.243 C 36.719 70.169 37.241 70.244 37.712 70.459 C 38.183 70.674 38.582 71.020 38.862 71.456 C 39.142 71.891 39.291 72.398 39.291 72.915 Z" stroke="rgb(255,0,255)" stroke-width="0.20" />
  <path d="M 48.891 72.915 C 48.891 73.433 48.742 73.940 48.462 74.375 C 48.182 74.811 47.783 75.156 47.312 75.371 C 46.841 75.587 46.319 75.662 45.806 75.588 C 45.294 75.514 44.814 75.295 44.423 74.956 C 44.031 74.617 43.746 74.173 43.600 73.676 C 43.454 73.180 43.454 72.651 43.600 72.155 C 43.746 71.658 44.031 71.214 44.423 70.875 C 44.814 70.536 45.294 70.317 45.806 70.243 C 46.319 70.169 46.841 70.244 47.312 70.459 C 47.783 70.674 48.182 71.020 48.462 71.456 C 48.742 71.891 48.891 72.398 48.891 72.915 Z" stroke="rgb(255,0,255)" stroke-width="0.20" />
  <path d="M 58.491 72.915 C 58.491 73.433 58.342 73.940 58.062 74.375 C 57.782 74.811 57.383 75.156 56.912 75.371 C 56.441 75.587 55.919 75.662 55.406 75.588 C 54.894 75.514 54.414 75.295 54.023 74.956 C 53.631 74.617 53.346 74.173 53.200 73.676 C 53.054 73.180 53.054 72.651 53.200 72.155 C 53.346 71.658 53.631 71.214 54.023 70.875 C 54.414 70.536 54.894 70.317 55.406 70.243 C 55.919 70.169 56.441 70.244 56.912 70.459 C 57.383 70.674 57.782 71.020 58.062 71.456 C 58.342 71.891 58.491 72.398 58.491 72.915 Z" stroke="rgb(255,0,255)" stroke-width="0.20" />
  <path d="M 68.091 72.915 C 68.091 73.433 67.942 73.940 67.662 74.375 C 67.382 74.811 66.983 75.156 66.512 75.371 C 66.041 75.587 65.519 75.662 65.006 75.588 C 64.494 75.514 64.014 75.295 63.623 74.956 C 63.231 74.617 62.946 74.173 62.800 73.676 C 62.654 73.180 62.654 72.651 62.800 72.155 C 62.946 71.658 63.231 71.214 63.623 70.875 C 64.014 70.536 64.494 70.317 65.006 70.243 C 65.519 70.169 66.041 70.244 66.512 70.459 C 66.983 70.674 67.382 71.020 67.662 71.456 C 67.942 71.891 68.091 72.398 68.091 72.915 Z" stroke="rgb(255,0,255)" stroke-width="0.20" />
  <path d="M 77.691 72.915 C 77.691 73.433 77.542 73.940 77.262 74.375 C 76.982 74.811 76.583 75.156 76.112 75.371 C 75.641 75.587 75.119 75.662 74.606 75.588 C 74.094 75.514 73.614 75.295 73.223 74.956 C 72.831 74.617 72.546 74.173 72.400 73.676 C 72.254 73.180 72.254 72.651 72.400 72.155 C 72.546 71.658 72.831 71.214 73.223 70.875 C 73.614 70.536 74.094 70.317 74.606 70.243 C 75.119 70.169 75.641 70.244 76.112 70.459 C 76.583 70.674 76.982 71.020 77.262 71.456 C 77.542 71.891 77.691 72.398 77.691 72.915 Z" stroke="rgb(255,0,255)" stroke-width="0.20" />
  <path d="M 87.291 72.915 C 87.291 73.433 87.142 73.940 86.862 74.375 C 86.582 74.811 86.183 75.156 85.712 75.371 C 85.241 75.587 84.719 75.662 84.206 75.588 C 83.694 75.514 83.214 75.295 82.823 74.956 C 82.431 74.617 82.146 74.173 82.000 73.676 C 81.854 73.180 81.854 72.651 82.000 72.155 C 82.146 71.658 82.431 71.214 82.823 70.875 C 83.214 70.536 83.694 70.317 84.206 70.243 C 84.719 70.169 85.241 70.244 85.712 70.459 C 86.183 70.674 86.582 71.020 86.862 71.456 C 87.142 71.891 87.291 72.398 87.291 72.915 Z" stroke="rgb(255,0,255)" stroke-width="0.20" />
  <path d="M 96.891 72.915 C 96.891 73.433 96.742 73.940 96.462 74.375 C 96.182 74.811 95.783 75.156 95.312 75.371 C 94.841 75.587 94.319 75.662 93.806 75.588 C 93.294 75.514 92.814 75.295 92.423 74.956 C 92.031 74.617 91.746 74.173 91.600 73.676 C 91.454 73.180 91.454 72.651 91.600 72.155 C 91.746 71.658 92.031 71.214 92.423 70.875 C 92.814 70.536 93.294 70.317 93.806 70.243 C 94.319 70.169 94.841 70.244 95.312 70.459 C 95.783 70.674 96.182 71.020 96.462 71.456 C 96.742 71.891 96.891 72.398 96.891 72.915 Z" stroke="rgb(255,0,255)" stroke-width="0.20" />
  <path d="M 15.291 64.309 C 15.291 64.827 15.142 65.334 14.862 65.769 C 14.582 66.205 14.183 66.550 13.712 66.765 C 13.241 66.980 12.719 67.056 12.206 66.982 C 11.694 66.908 11.214 66.689 10.823 66.350 C 10.431 66.011 10.146 65.567 10.000 65.070 C 9.854 64.573 9.854 64.045 10.000 63.549 C 10.146 63.052 10.431 62.608 10.823 62.269 C 11.214 61.930 11.694 61.710 12.206 61.637 C 12.719 61.563 13.241 61.638 13.712 61.853 C 14.183 62.068 14.582 62.414 14.862 62.850 C 15.142 63.285 15.291 63.792 15.291 64.309 Z" stroke="rgb(255,0,255)" stroke-width="0.20" />
  <path d="M 24.891 64.309 C 24.891 64.827 24.742 65.334 24.462 65.769 C 24.182 66.205 23.783 66.550 23.312 66.765 C 22.841 66.980 22.319 67.056 21.806 66.982 C 21.294 66.908 20.814 66.689 20.423 66.350 C 20.031 66.011 19.746 65.567 19.600 65.070 C 19.454 64.573 19.454 64.045 19.600 63.549 C 19.746 63.052 20.031 62.608 20.423 62.269 C 20.814 61.930 21.294 61.710 21.806 61.637 C 22.319 61.563 22.841 61.638 23.312 61.853 C 23.783 62.068 24.182 62.414 24.462 62.850 C 24.742 63.285 24.891 63.792 24.891 64.309 Z" stroke="rgb(255,0,255)" stroke-width="0.20" />
  <path d="M 34.491 64.309 C 34.491 64.827 34.342 65.334 34.062 65.769 C 33.782 66.205 33.383 66.550 32.912 66.765 C 32.441 66.980 31.919 67.056 31.406 66.982 C 30.894 66.908 30.414 66.689 30.023 66.350 C 29.631 66.011 29.346 65.567 29.200 65.070 C 29.054 64.573 29.054 64.045 29.200 63.549 C 29.346 63.052 29.631 62.608 30.023 62.269 C 30.414 61.930 30.894 61.710 31.406 61.637 C 31.919 61.563 32.441 61.638 32.912 61.853 C 33.383 62.068 33.782 62.414 34.062 62.850 C 34.342 63.285 34.491 63.792 34.491 64.309 Z" stroke="rgb(255,0,255)" stroke-width="0.20" />
  <path d="M 44.091 64.309 C 44.091 64.827 43.942 65.334 43.662 65.769 C 43.382 66.205 42.983 66.550 42.512 66.765 C 42.041 66.980 41.519 67.056 41.006 66.982 C 40.494 66.908 40.014 66.689 39.623 66.350 C 39.231 66.011 38.946 65.567 38.800 65.070 C 38.654 64.573 38.654 64.045 38.800 63.549 C 38.946 63.052 39.231 62.608 39.623 62.269 C 40.014 61.930 40.494 61.710 41.006 61.637 C 41.519 61.563 42.041 61.638 42.512 61.853 C 42.983 62.068 43.382 62.414 43.662 62.850 C 43.942 63.285 44.091 63.792 44.091 64.309 Z" stroke="rgb(255,0,255)" stroke-width="0.20" />
  <path d="M 53.691 64.309 C 53.691 64.827 53.542 65.334 53.262 65.769 C 52.982 66.205 52.583 66.550 52.112 66.765 C 51.641 66.980 51.119 67.056 50.606 66.982 C 50.094 66.908 49.614 66.689 49.223 66.350 C 48.831 66.011 48.546 65.567 48.400 65.070 C 48.254 64.573 48.254 64.045 48.400 63.549 C 48.546 63.052 48.831 62.608 49.223 62.269 C 49.614 61.930 50.094 61.710 50.606 61.637 C 51.119 61.563 51.641 61.638 52.112 61.853 C 52.583 62.068 52.982 62.414 53.262 62.850 C 53.542 63.285 53.691 63.792 53.691 64.309 Z" stroke="rgb(255,0,255)" stroke-width="0.20" />
  <path d="M 63.291 64.309 C 63.291 64.827 63.142 65.334 62.862 65.769 C 62.582 66.205 62.183 66.550 61.712 66.765 C 61.241 66.980 60.719 67.056 60.206 66.982 C 59.694 66.908 59.214 66.689 58.823 66.350 C 58.431 66.011 58.146 65.567 58.000 65.070 C 57.854 64.573 57.854 64.045 58.000 63.549 C 58.146 63.052 58.431 62.608 58.823 62.269 C 59.214 61.930 59.694 61.710 60.206 61.637 C 60.719 61.563 61.241 61.638 61.712 61.853 C 62.183 62.068 62.582 62.414 62.862 62.850 C 63.142 63.285 63.291 63.792 63.291 64.309 Z" stroke="rgb(255,0,255)" stroke-width="0.20" />
  <path d="M 72.891 64.309 C 72.891 64.827 72.742 65.334 72.462 65.769 C 72.182 66.205 71.783 66.550 71.312 66.765 C 70.841 66.980 70.319 67.056 69.806 66.982 C 69.294 66.908 68.814 66.689 68.423 66.350 C 68.031 66.011 67.746 65.567 67.600 65.070 C 67.454 64.573 67.454 64.045 67.600 63.549 C 67.746 63.052 68.031 62.608 68.423 62.269 C 68.814 61.930 69.294 61.710 69.806 61.637 C 70.319 61.563 70.841 61.638 71.312 61.853 C 71.783 62.068 72.182 62.414 72.462 62.850 C 72.742 63.285 72.891 63.792 72.891 64.309 Z" stroke="rgb(255,0,255)" stroke-width="0.20" />
  <path d="M 82.491 64.309 C 82.491 64.827 82.342 65.334 82.062 65.769 C 81.782 66.205 81.383 66.550 80.912 66.765 C 80.441 66.980 79.919 67.056 79.406 66.982 C 78.894 66.908 78.414 66.689 78.023 66.350 C 77.631 66.011 77.346 65.567 77.200 65.070 C 77.054 64.573 77.054 64.045 77.200 63.549 C 77.346 63.052 77.631 62.608 78.023 62.269 C 78.414 61.930 78.894 61.710 79.406 61.637 C 79.919 61.563 80.441 61.638 80.912 61.853 C 81.383 62.068 81.782 62.414 82.062 62.850 C 82.342 63.285 82.491 63.792 82.491 64.309 Z" stroke="rgb(255,0,255)" stroke-width="0.20" />
  <path d="M 92.091 64.309 C 92.091 64.827 91.942 65.334 91.662 65.769 C 91.382 66.205 90.983 66.550 90.512 66.765 C 90.041 66.980 89.519 67.056 89.006 66.982 C 88.494 66.908 88.014 66.689 87.623 66.350 C 87.231 66.011 86.946 65.567 86.800 65.070 C 86.654 64.573 86.654 64.045 86.800 63.549 C 86.946 63.052 87.231 62.608 87.623 62.269 C 88.014 61.930 88.494 61.710 89.006 61.637 C 89.519 61.563 90.041 61.638 90.512 61.853 C 90.983 62.068 91.382 62.414 91.662 62.850 C 91.942 63.285 92.091 63.792 92.091 64.309 Z" stroke="rgb(255,0,255)" stroke-width="0.20" />
  <path d="M 101.691 64.309 C 101.691 64.827 101.542 65.334 101.262 65.769 C 100.982 66.205 100.583 66.550 100.112 66.765 C 99.641 66.980 99.119 67.056 98.606 66.982 C 98.094 66.908 97.614 66.689 97.223 66.350 C 96.831 66.011 96.546 65.567 96.400 65.070 C 96.254 64.573 96.254 64.045 96.400 63.549 C 96.546 63.052 96.831 62.608 97.223 62.269 C 97.614 61.930 98.094 61.710 98.606 61.637 C 99.119 61.563 99.641 61.638 100.112 61.853 C 100.583 62.068 100.982 62.414 101.262 62.850 C 101.542 63.285 101.691 63.792 101.691 64.309 Z" stroke="rgb(255,0,255)" stroke-width="0.20" />
  <path d="M 20.091 55.703 C 20.091 56.221 19.942 56.728 19.662 57.163 C 19.382 57.598 18.983 57.944 18.512 58.159 C 18.041 58.374 17.519 58.449 17.006 58.376 C 16.494 58.302 16.014 58.083 15.623 57.744 C 15.231 57.405 14.946 56.961 14.800 56.464 C 14.654 55.967 14.654 55.439 14.800 54.943 C 14.946 54.446 15.231 54.002 15.623 53.663 C 16.014 53.324 16.494 53.104 17.006 53.031 C 17.519 52.957 18.041 53.032 18.512 53.247 C 18.983 53.462 19.382 53.808 19.662 54.243 C 19.942 54.679 20.091 55.186 20.091 55.703 Z" stroke="rgb(255,0,255)" stroke-width="0.20" />
  <path d="M 29.691 55.703 C 29.691 56.221 29.542 56.728 29.262 57.163 C 28.982 57.598 28.583 57.944 28.112 58.159 C 27.641 58.374 27.119 58.449 26.606 58.376 C 26.094 58.302 25.614 58.083 25.223 57.744 C 24.831 57.405 24.546 56.961 24.400 56.464 C 24.254 55.967 24.254 55.439 24.400 54.943 C 24.546 54.446 24.831 54.002 25.223 53.663 C 25.614 53.324 26.094 53.104 26.606 53.031 C 27.119 52.957 27.641 53.032 28.112 53.247 C 28.583 53.462 28.982 53.808 29.262 54.243 C 29.542 54.679 29.691 55.186 29.691 55.703 Z" stroke="rgb(255,0,255)" stroke-width="0.20" />
  <path d="M 39.291 55.703 C 39.291 56.221 39.142 56.728 38.862 57.163 C 38.582 57.598 38.183 57.944 37.712 58.159 C 37.241 58.374 36.719 58.449 36.206 58.376 C 35.694 58.302 35.214 58.083 34.823 57.744 C 34.431 57.405 34.146 56.961 34.000 56.464 C 33.854 55.967 33.854 55.439 34.000 54.943 C 34.146 54.446 34.431 54.002 34.823 53.663 C 35.214 53.324 35.694 53.104 36.206 53.031 C 36.719 52.957 37.241 53.032 37.712 53.247 C 38.183 53.462 38.582 53.808 38.862 54.243 C 39.142 54.679 39.291 55.186 39.291 55.703 Z" stroke="rgb(255,0,255)" stroke-width="0.20" />
  <path d="M 48.891 55.703 C 48.891 56.221 48.742 56.728 48.462 57.163 C 48.182 57.598 47.783 57.944 47.312 58.159 C 46.841 58.374 46.319 58.449 45.806 58.376 C 45.294 58.302 44.814 58.083 44.423 57.744 C 44.031 57.405 43.746 56.961 43.600 56.464 C 43.454 55.967 43.454 55.439 43.600 54.943 C 43.746 54.446 44.031 54.002 44.423 53.663 C 44.814 53.324 45.294 53.104 45.806 53.031 C 46.319 52.957 46.841 53.032 47.312 53.247 C 47.783 53.462 48.182 53.808 48.462 54.243 C 48.742 54.679 48.891 55.186 48.891 55.703 Z" stroke="rgb(255,0,255)" stroke-width="0.20" />
  <path d="M 58.491 55.703 C 58.491 56.221 58.342 56.728 58.062 57.163 C 57.782 57.598 57.383 57.944 56.912 58.159 C 56.441 58.374 55.919 58.449 55.406 58.376 C 54.894 58.302 54.414 58.083 54.023 57.744 C 53.631 57.405 53.346 56.961 53.200 56.464 C 53.054 55.967 53.054 55.439 53.200 54.943 C 53.346 54.446 53.631 54.002 54.023 53.663 C 54.414 53.324 54.894 53.104 55.406 53.031 C 55.919 52.957 56.441 53.032 56.912 53.247 C 57.383 53.462 57.782 53.808 58.062 54.243 C 58.342 54.679 58.491 55.186 58.491 55.703 Z" stroke="rgb(255,0,255)" stroke-width="0.20" />
  <path d="M 68.091 55.703 C 68.091 56.221 67.942 56.728 67.662 57.163 C 67.382 57.598 66.983 57.944 66.512 58.159 C 66.041 58.374 65.519 58.449 65.006 58.376 C 64.494 58.302 64.014 58.083 63.623 57.744 C 63.231 57.405 62.946 56.961 62.800 56.464 C 62.654 55.967 62.654 55.439 62.800 54.943 C 62.946 54.446 63.231 54.002 63.623 53.663 C 64.014 53.324 64.494 53.104 65.006 53.031 C 65.519 52.957 66.041 53.032 66.512 53.247 C 66.983 53.462 67.382 53.808 67.662 54.243 C 67.942 54.679 68.091 55.186 68.091 55.703 Z" stroke="rgb(255,0,255)" stroke-width="0.20" />
  <path d="M 77.691 55.703 C 77.691 56.221 77.542 56.728 77.262 57.163 C 76.982 57.598 76.583 57.944 76.112 58.159 C 75.641 58.374 75.119 58.449 74.606 58.376 C 74.094 58.302 73.614 58.083 73.223 57.744 C 72.831 57.405 72.546 56.961 72.400 56.464 C 72.254 55.967 72.254 55.439 72.400 54.943 C 72.546 54.446 72.831 54.002 73.223 53.663 C 73.614 53.324 74.094 53.104 74.606 53.031 C 75.119 52.957 75.641 53.032 76.112 53.247 C 76.583 53.462 76.982 53.808 77.262 54.243 C 77.542 54.679 77.691 55.186 77.691 55.703 Z" stroke="rgb(255,0,255)" stroke-width="0.20" />
  <path d="M 87.291 55.703 C 87.291 56.221 87.142 56.728 86.862 57.163 C 86.582 57.598 86.183 57.944 85.712 58.159 C 85.241 58.374 84.719 58.449 84.206 58.376 C 83.694 58.302 83.214 58.083 82.823 57.744 C 82.431 57.405 82.146 56.961 82.000 56.464 C 81.854 55.967 81.854 55.439 82.000 54.943 C 82.146 54.446 82.431 54.002 82.823 53.663 C 83.214 53.324 83.694 53.104 84.206 53.031 C 84.719 52.957 85.241 53.032 85.712 53.247 C 86.183 53.462 86.582 53.808 86.862 54.243 C 87.142 54.679 87.291 55.186 87.291 55.703 Z" stroke="rgb(255,0,255)" stroke-width="0.20" />
  <path d="M 96.891 55.703 C 96.891 56.221 96.742 56.728 96.462 57.163 C 96.182 57.598 95.783 57.944 95.312 58.159 C 94.841 58.374 94.319 58.449 93.806 58.376 C 93.294 58.302 92.814 58.083 92.423 57.744 C 92.031 57.405 91.746 56.961 91.600 56.464 C 91.454 55.967 91.454 55.439 91.600 54.943 C 91.746 54.446 92.031 54.002 92.423 53.663 C 92.814 53.324 93.294 53.104 93.806 53.031 C 94.319 52.957 94.841 53.032 95.312 53.247 C 95.783 53.462 96.182 53.808 96.462 54.243 C 96.742 54.679 96.891 55.186 96.891 55.703 Z" stroke="rgb(255,0,255)" stroke-width="0.20" />
  <path d="M 15.291 47.097 C 15.291 47.615 15.142 48.121 14.862 48.557 C 14.582 48.992 14.183 49.338 13.712 49.553 C 13.241 49.768 12.719 49.843 12.206 49.770 C 11.694 49.696 11.214 49.477 10.823 49.138 C 10.431 48.799 10.146 48.354 10.000 47.858 C 9.854 47.361 9.854 46.833 10.000 46.336 C 10.146 45.840 10.431 45.396 10.823 45.057 C 11.214 44.718 11.694 44.498 12.206 44.425 C 12.719 44.351 13.241 44.426 13.712 44.641 C 14.183 44.856 14.582 45.202 14.862 45.637 C 15.142 46.073 15.291 46.579 15.291 47.097 Z" stroke="rgb(255,0,255)" stroke-width="0.20" />
  <path d="M 24.891 47.097 C 24.891 47.615 24.742 48.121 24.462 48.557 C 24.182 48.992 23.783 49.338 23.312 49.553 C 22.841 49.768 22.319 49.843 21.806 49.770 C 21.294 49.696 20.814 49.477 20.423 49.138 C 20.031 48.799 19.746 48.354 19.600 47.858 C 19.454 47.361 19.454 46.833 19.600 46.336 C 19.746 45.840 20.031 45.396 20.423 45.057 C 20.814 44.718 21.294 44.498 21.806 44.425 C 22.319 44.351 22.841 44.426 23.312 44.641 C 23.783 44.856 24.182 45.202 24.462 45.637 C 24.742 46.073 24.891 46.579 24.891 47.097 Z" stroke="rgb(255,0,255)" stroke-width="0.20" />
  <path d="M 34.491 47.097 C 34.491 47.615 34.342 48.121 34.062 48.557 C 33.782 48.992 33.383 49.338 32.912 49.553 C 32.441 49.768 31.919 49.843 31.406 49.770 C 30.894 49.696 30.414 49.477 30.023 49.138 C 29.631 48.799 29.346 48.354 29.200 47.858 C 29.054 47.361 29.054 46.833 29.200 46.336 C 29.346 45.840 29.631 45.396 30.023 45.057 C 30.414 44.718 30.894 44.498 31.406 44.425 C 31.919 44.351 32.441 44.426 32.912 44.641 C 33.383 44.856 33.782 45.202 34.062 45.637 C 34.342 46.073 34.491 46.579 34.491 47.097 Z" stroke="rgb(255,0,255)" stroke-width="0.20" />
  <path d="M 44.091 47.097 C 44.091 47.615 43.942 48.121 43.662 48.557 C 43.382 48.992 42.983 49.338 42.512 49.553 C 42.041 49.768 41.519 49.843 41.006 49.770 C 40.494 49.696 40.014 49.477 39.623 49.138 C 39.231 48.799 38.946 48.354 38.800 47.858 C 38.654 47.361 38.654 46.833 38.800 46.336 C 38.946 45.840 39.231 45.396 39.623 45.057 C 40.014 44.718 40.494 44.498 41.006 44.425 C 41.519 44.351 42.041 44.426 42.512 44.641 C 42.983 44.856 43.382 45.202 43.662 45.637 C 43.942 46.073 44.091 46.579 44.091 47.097 Z" stroke="rgb(255,0,255)" stroke-width="0.20" />
  <path d="M 53.691 47.097 C 53.691 47.615 53.542 48.121 53.262 48.557 C 52.982 48.992 52.583 49.338 52.112 49.553 C 51.641 49.768 51.119 49.843 50.606 49.770 C 50.094 49.696 49.614 49.477 49.223 49.138 C 48.831 48.799 48.546 48.354 48.400 47.858 C 48.254 47.361 48.254 46.833 48.400 46.336 C 48.546 45.840 48.831 45.396 49.223 45.057 C 49.614 44.718 50.094 44.498 50.606 44.425 C 51.119 44.351 51.641 44.426 52.112 44.641 C 52.583 44.856 52.982 45.202 53.262 45.637 C 53.542 46.073 53.691 46.579 53.691 47.097 Z" stroke="rgb(255,0,255)" stroke-width="0.20" />
  <path d="M 63.291 47.097 C 63.291 47.615 63.142 48.121 62.862 48.557 C 62.582 48.992 62.183 49.338 61.712 49.553 C 61.241 49.768 60.719 49.843 60.206 49.770 C 59.694 49.696 59.214 49.477 58.823 49.138 C 58.431 48.799 58.146 48.354 58.000 47.858 C 57.854 47.361 57.854 46.833 58.000 46.336 C 58.146 45.840 58.431 45.396 58.823 45.057 C 59.214 44.718 59.694 44.498 60.206 44.425 C 60.719 44.351 61.241 44.426 61.712 44.641 C 62.183 44.856 62.582 45.202 62.862 45.637 C 63.142 46.073 63.291 46.579 63.291 47.097 Z" stroke="rgb(255,0,255)" stroke-width="0.20" />
  <path d="M 72.891 47.097 C 72.891 47.615 72.742 48.121 72.462 48.557 C 72.182 48.992 71.783 49.338 71.312 49.553 C 70.841 49.768 70.319 49.843 69.806 49.770 C 69.294 49.696 68.814 49.477 68.423 49.138 C 68.031 48.799 67.746 48.354 67.600 47.858 C 67.454 47.361 67.454 46.833 67.600 46.336 C 67.746 45.840 68.031 45.396 68.423 45.057 C 68.814 44.718 69.294 44.498 69.806 44.425 C 70.319 44.351 70.841 44.426 71.312 44.641 C 71.783 44.856 72.182 45.202 72.462 45.637 C 72.742 46.073 72.891 46.579 72.891 47.097 Z" stroke="rgb(255,0,255)" stroke-width="0.20" />
  <path d="M 82.491 47.097 C 82.491 47.615 82.342 48.121 82.062 48.557 C 81.782 48.992 81.383 49.338 80.912 49.553 C 80.441 49.768 79.919 49.843 79.406 49.770 C 78.894 49.696 78.414 49.477 78.023 49.138 C 77.631 48.799 77.346 48.354 77.200 47.858 C 77.054 47.361 77.054 46.833 77.200 46.336 C 77.346 45.840 77.631 45.396 78.023 45.057 C 78.414 44.718 78.894 44.498 79.406 44.425 C 79.919 44.351 80.441 44.426 80.912 44.641 C 81.383 44.856 81.782 45.202 82.062 45.637 C 82.342 46.073 82.491 46.579 82.491 47.097 Z" stroke="rgb(255,0,255)" stroke-width="0.20" />
  <path d="M 92.091 47.097 C 92.091 47.615 91.942 48.121 91.662 48.557 C 91.382 48.992 90.983 49.338 90.512 49.553 C 90.041 49.768 89.519 49.843 89.006 49.770 C 88.494 49.696 88.014 49.477 87.623 49.138 C 87.231 48.799 86.946 48.354 86.800 47.858 C 86.654 47.361 86.654 46.833 86.800 46.336 C 86.946 45.840 87.231 45.396 87.623 45.057 C 88.014 44.718 88.494 44.498 89.006 44.425 C 89.519 44.351 90.041 44.426 90.512 44.641 C 90.983 44.856 91.382 45.202 91.662 45.637 C 91.942 46.073 92.091 46.579 92.091 47.097 Z" stroke="rgb(255,0,255)" stroke-width="0.20" />
  <path d="M 101.691 47.097 C 101.691 47.615 101.542 48.121 101.262 48.557 C 100.982 48.992 100.583 49.338 100.112 49.553 C 99.641 49.768 99.119 49.843 98.606 49.770 C 98.094 49.696 97.614 49.477 97.223 49.138 C 96.831 48.799 96.546 48.354 96.400 47.858 C 96.254 47.361 96.254 46.833 96.400 46.336 C 96.546 45.840 96.831 45.396 97.223 45.057 C 97.614 44.718 98.094 44.498 98.606 44.425 C 99.119 44.351 99.641 44.426 100.112 44.641 C 100.583 44.856 100.982 45.202 101.262 45.637 C 101.542 46.073 101.691 46.579 101.691 47.097 Z" stroke="rgb(255,0,255)" stroke-width="0.20" />
  <path d="M 20.091 38.491 C 20.091 39.009 19.942 39.515 19.662 39.951 C 19.382 40.386 18.983 40.732 18.512 40.947 C 18.041 41.162 17.519 41.237 17.006 41.163 C 16.494 41.090 16.014 40.870 15.623 40.531 C 15.231 40.192 14.946 39.748 14.800 39.252 C 14.654 38.755 14.654 38.227 14.800 37.730 C 14.946 37.234 15.231 36.789 15.623 36.450 C 16.014 36.111 16.494 35.892 17.006 35.818 C 17.519 35.745 18.041 35.820 18.512 36.035 C 18.983 36.250 19.382 36.596 19.662 37.031 C 19.942 37.467 20.091 37.973 20.091 38.491 Z" stroke="rgb(255,0,255)" stroke-width="0.20" />
  <path d="M 29.691 38.491 C 29.691 39.009 29.542 39.515 29.262 39.951 C 28.982 40.386 28.583 40.732 28.112 40.947 C 27.641 41.162 27.119 41.237 26.606 41.163 C 26.094 41.090 25.614 40.870 25.223 40.531 C 24.831 40.192 24.546 39.748 24.400 39.252 C 24.254 38.755 24.254 38.227 24.400 37.730 C 24.546 37.234 24.831 36.789 25.223 36.450 C 25.614 36.111 26.094 35.892 26.606 35.818 C 27.119 35.745 27.641 35.820 28.112 36.035 C 28.583 36.250 28.982 36.596 29.262 37.031 C 29.542 37.467 29.691 37.973 29.691 38.491 Z" stroke="rgb(255,0,255)" stroke-width="0.20" />
  <path d="M 39.291 38.491 C 39.291 39.009 39.142 39.515 38.862 39.951 C 38.582 40.386 38.183 40.732 37.712 40.947 C 37.241 41.162 36.719 41.237 36.206 41.163 C 35.694 41.090 35.214 40.870 34.823 40.531 C 34.431 40.192 34.146 39.748 34.000 39.252 C 33.854 38.755 33.854 38.227 34.000 37.730 C 34.146 37.234 34.431 36.789 34.823 36.450 C 35.214 36.111 35.694 35.892 36.206 35.818 C 36.719 35.745 37.241 35.820 37.712 36.035 C 38.183 36.250 38.582 36.596 38.862 37.031 C 39.142 37.467 39.291 37.973 39.291 38.491 Z" stroke="rgb(255,0,255)" stroke-width="0.20" />
  <path d="M 48.891 38.491 C 48.891 39.009 48.742 39.515 48.462 39.951 C 48.182 40.386 47.783 40.732 47.312 40.947 C 46.841 41.162 46.319 41.237 45.806 41.163 C 45.294 41.090 44.814 40.870 44.423 40.531 C 44.031 40.192 43.746 39.748 43.600 39.252 C 43.454 38.755 43.454 38.227 43.600 37.730 C 43.746 37.234 44.031 36.789 44.423 36.450 C 44.814 36.111 45.294 35.892 45.806 35.818 C 46.319 35.745 46.841 35.820 47.312 36.035 C 47.783 36.250 48.182 36.596 48.462 37.031 C 48.742 37.467 48.891 37.973 48.891 38.491 Z" stroke="rgb(255,0,255)" stroke-width="0.20" />
  <path d="M 58.491 38.491 C 58.491 39.009 58.342 39.515 58.062 39.951 C 57.782 40.386 57.383 40.732 56.912 40.947 C 56.441 41.162 55.919 41.237 55.406 41.163 C 54.894 41.090 54.414 40.870 54.023 40.531 C 53.631 40.192 53.346 39.748 53.200 39.252 C 53.054 38.755 53.054 38.227 53.200 37.730 C 53.346 37.234 53.631 36.789 54.023 36.450 C 54.414 36.111 54.894 35.892 55.406 35.818 C 55.919 35.745 56.441 35.820 56.912 36.035 C 57.383 36.250 57.782 36.596 58.062 37.031 C 58.342 37.467 58.491 37.973 58.491 38.491 Z" stroke="rgb(255,0,255)" stroke-width="0.20" />
  <path d="M 68.091 38.491 C 68.091 39.009 67.942 39.515 67.662 39.951 C 67.382 40.386 66.983 40.732 66.512 40.947 C 66.041 41.162 65.519 41.237 65.006 41.163 C 64.494 41.090 64.014 40.870 63.623 40.531 C 63.231 40.192 62.946 39.748 62.800 39.252 C 62.654 38.755 62.654 38.227 62.800 37.730 C 62.946 37.234 63.231 36.789 63.623 36.450 C 64.014 36.111 64.494 35.892 65.006 35.818 C 65.519 35.745 66.041 35.820 66.512 36.035 C 66.983 36.250 67.382 36.596 67.662 37.031 C 67.942 37.467 68.091 37.973 68.091 38.491 Z" stroke="rgb(255,0,255)" stroke-width="0.20" />
  <path d="M 77.691 38.491 C 77.691 39.009 77.542 39.515 77.262 39.951 C 76.982 40.386 76.583 40.732 76.112 40.947 C 75.641 41.162 75.119 41.237 74.606 41.163 C 74.094 41.090 73.614 40.870 73.223 40.531 C 72.831 40.192 72.546 39.748 72.400 39.252 C 72.254 38.755 72.254 38.227 72.400 37.730 C 72.546 37.234 72.831 36.789 73.223 36.450 C 73.614 36.111 74.094 35.892 74.606 35.818 C 75.119 35.745 75.641 35.820 76.112 36.035 C 76.583 36.250 76.982 36.596 77.262 37.031 C 77.542 37.467 77.691 37.973 77.691 38.491 Z" stroke="rgb(255,0,255)" stroke-width="0.20" />
  <path d="M 87.291 38.491 C 87.291 39.009 87.142 39.515 86.862 39.951 C 86.582 40.386 86.183 40.732 85.712 40.947 C 85.241 41.162 84.719 41.237 84.206 41.163 C 83.694 41.090 83.214 40.870 82.823 40.531 C 82.431 40.192 82.146 39.748 82.000 39.252 C 81.854 38.755 81.854 38.227 82.000 37.730 C 82.146 37.234 82.431 36.789 82.823 36.450 C 83.214 36.111 83.694 35.892 84.206 35.818 C 84.719 35.745 85.241 35.820 85.712 36.035 C 86.183 36.250 86.582 36.596 86.862 37.031 C 87.142 37.467 87.291 37.973 87.291 38.491 Z" stroke="rgb(255,0,255)" stroke-width="0.20" />
  <path d="M 96.891 38.491 C 96.891 39.009 96.742 39.515 96.462 39.951 C 96.182 40.386 95.783 40.732 95.312 40.947 C 94.841 41.162 94.319 41.237 93.806 41.163 C 93.294 41.090 92.814 40.870 92.423 40.531 C 92.031 40.192 91.746 39.748 91.600 39.252 C 91.454 38.755 91.454 38.227 91.600 37.730 C 91.746 37.234 92.031 36.789 92.423 36.450 C 92.814 36.111 93.294 35.892 93.806 35.818 C 94.319 35.745 94.841 35.820 95.312 36.035 C 95.783 36.250 96.182 36.596 96.462 37.031 C 96.742 37.467 96.891 37.973 96.891 38.491 Z" stroke="rgb(255,0,255)" stroke-width="0.20" />
  <path d="M 15.291 29.885 C 15.291 30.402 15.142 30.909 14.862 31.345 C 14.582 31.780 14.183 32.126 13.712 32.341 C 13.241 32.556 12.719 32.631 12.206 32.557 C 11.694 32.484 11.214 32.264 10.823 31.925 C 10.431 31.586 10.146 31.142 10.000 30.645 C 9.854 30.149 9.854 29.621 10.000 29.124 C 10.146 28.627 10.431 28.183 10.823 27.844 C 11.214 27.505 11.694 27.286 12.206 27.212 C 12.719 27.139 13.241 27.214 13.712 27.429 C 14.183 27.644 14.582 27.990 14.862 28.425 C 15.142 28.860 15.291 29.367 15.291 29.885 Z" stroke="rgb(255,0,255)" stroke-width="0.20" />
  <path d="M 24.891 29.885 C 24.891 30.402 24.742 30.909 24.462 31.345 C 24.182 31.780 23.783 32.126 23.312 32.341 C 22.841 32.556 22.319 32.631 21.806 32.557 C 21.294 32.484 20.814 32.264 20.423 31.925 C 20.031 31.586 19.746 31.142 19.600 30.645 C 19.454 30.149 19.454 29.621 19.600 29.124 C 19.746 28.627 20.031 28.183 20.423 27.844 C 20.814 27.505 21.294 27.286 21.806 27.212 C 22.319 27.139 22.841 27.214 23.312 27.429 C 23.783 27.644 24.182 27.990 24.462 28.425 C 24.742 28.860 24.891 29.367 24.891 29.885 Z" stroke="rgb(255,0,255)" stroke-width="0.20" />
  <path d="M 34.491 29.885 C 34.491 30.402 34.342 30.909 34.062 31.345 C 33.782 31.780 33.383 32.126 32.912 32.341 C 32.441 32.556 31.919 32.631 31.406 32.557 C 30.894 32.484 30.414 32.264 30.023 31.925 C 29.631 31.586 29.346 31.142 29.200 30.645 C 29.054 30.149 29.054 29.621 29.200 29.124 C 29.346 28.627 29.631 28.183 30.023 27.844 C 30.414 27.505 30.894 27.286 31.406 27.212 C 31.919 27.139 32.441 27.214 32.912 27.429 C 33.383 27.644 33.782 27.990 34.062 28.425 C 34.342 28.860 34.491 29.367 34.491 29.885 Z" stroke="rgb(255,0,255)" stroke-width="0.20" />
  <path d="M 44.091 29.885 C 44.091 30.402 43.942 30.909 43.662 31.345 C 43.382 31.780 42.983 32.126 42.512 32.341 C 42.041 32.556 41.519 32.631 41.006 32.557 C 40.494 32.484 40.014 32.264 39.623 31.925 C 39.231 31.586 38.946 31.142 38.800 30.645 C 38.654 30.149 38.654 29.621 38.800 29.124 C 38.946 28.627 39.231 28.183 39.623 27.844 C 40.014 27.505 40.494 27.286 41.006 27.212 C 41.519 27.139 42.041 27.214 42.512 27.429 C 42.983 27.644 43.382 27.990 43.662 28.425 C 43.942 28.860 44.091 29.367 44.091 29.885 Z" stroke="rgb(255,0,255)" stroke-width="0.20" />
  <path d="M 53.691 29.885 C 53.691 30.402 53.542 30.909 53.262 31.345 C 52.982 31.780 52.583 32.126 52.112 32.341 C 51.641 32.556 51.119 32.631 50.606 32.557 C 50.094 32.484 49.614 32.264 49.223 31.925 C 48.831 31.586 48.546 31.142 48.400 30.645 C 48.254 30.149 48.254 29.621 48.400 29.124 C 48.546 28.627 48.831 28.183 49.223 27.844 C 49.614 27.505 50.094 27.286 50.606 27.212 C 51.119 27.139 51.641 27.214 52.112 27.429 C 52.583 27.644 52.982 27.990 53.262 28.425 C 53.542 28.860 53.691 29.367 53.691 29.885 Z" stroke="rgb(255,0,255)" stroke-width="0.20" />
  <path d="M 63.291 29.885 C 63.291 30.402 63.142 30.909 62.862 31.345 C 62.582 31.780 62.183 32.126 61.712 32.341 C 61.241 32.556 60.719 32.631 60.206 32.557 C 59.694 32.484 59.214 32.264 58.823 31.925 C 58.431 31.586 58.146 31.142 58.000 30.645 C 57.854 30.149 57.854 29.621 58.000 29.124 C 58.146 28.627 58.431 28.183 58.823 27.844 C 59.214 27.505 59.694 27.286 60.206 27.212 C 60.719 27.139 61.241 27.214 61.712 27.429 C 62.183 27.644 62.582 27.990 62.862 28.425 C 63.142 28.860 63.291 29.367 63.291 29.885 Z" stroke="rgb(255,0,255)" stroke-width="0.20" />
  <path d="M 72.891 29.885 C 72.891 30.402 72.742 30.909 72.462 31.345 C 72.182 31.780 71.783 32.126 71.312 32.341 C 70.841 32.556 70.319 32.631 69.806 32.557 C 69.294 32.484 68.814 32.264 68.423 31.925 C 68.031 31.586 67.746 31.142 67.600 30.645 C 67.454 30.149 67.454 29.621 67.600 29.124 C 67.746 28.627 68.031 28.183 68.423 27.844 C 68.814 27.505 69.294 27.286 69.806 27.212 C 70.319 27.139 70.841 27.214 71.312 27.429 C 71.783 27.644 72.182 27.990 72.462 28.425 C 72.742 28.860 72.891 29.367 72.891 29.885 Z" stroke="rgb(255,0,255)" stroke-width="0.20" />
  <path d="M 82.491 29.885 C 82.491 30.402 82.342 30.909 82.062 31.345 C 81.782 31.780 81.383 32.126 80.912 32.341 C 80.441 32.556 79.919 32.631 79.406 32.557 C 78.894 32.484 78.414 32.264 78.023 31.925 C 77.631 31.586 77.346 31.142 77.200 30.645 C 77.054 30.149 77.054 29.621 77.200 29.124 C 77.346 28.627 77.631 28.183 78.023 27.844 C 78.414 27.505 78.894 27.286 79.406 27.212 C 79.919 27.139 80.441 27.214 80.912 27.429 C 81.383 27.644 81.782 27.990 82.062 28.425 C 82.342 28.860 82.491 29.367 82.491 29.885 Z" stroke="rgb(255,0,255)" stroke-width="0.20" />
  <path d="M 92.091 29.885 C 92.091 30.402 91.942 30.909 91.662 31.345 C 91.382 31.780 90.983 32.126 90.512 32.341 C 90.041 32.556 89.519 32.631 89.006 32.557 C 88.494 32.484 88.014 32.264 87.623 31.925 C 87.231 31.586 86.946 31.142 86.800 30.645 C 86.654 30.149 86.654 29.621 86.800 29.124 C 86.946 28.627 87.231 28.183 87.623 27.844 C 88.014 27.505 88.494 27.286 89.006 27.212 C 89.519 27.139 90.041 27.214 90.512 27.429 C 90.983 27.644 91.382 27.990 91.662 28.425 C 91.942 28.860 92.091 29.367 92.091 29.885 Z" stroke="rgb(255,0,255)" stroke-width="0.20" />
  <path d="M 101.691 29.885 C 101.691 30.402 101.542 30.909 101.262 31.345 C 100.982 31.780 100.583 32.126 100.112 32.341 C 99.641 32.556 99.119 32.631 98.606 32.557 C 98.094 32.484 97.614 32.264 97.223 31.925 C 96.831 31.586 96.546 31.142 96.400 30.645 C 96.254 30.149 96.254 29.621 96.400 29.124 C 96.546 28.627 96.831 28.183 97.223 27.844 C 97.614 27.505 98.094 27.286 98.606 27.212 C 99.119 27.139 99.641 27.214 100.112 27.429 C 100.583 27.644 100.982 27.990 101.262 28.425 C 101.542 28.860 101.691 29.367 101.691 29.885 Z" stroke="rgb(255,0,255)" stroke-width="0.20" />
  <path d="M 20.091 21.279 C 20.091 21.796 19.942 22.303 19.662 22.738 C 19.382 23.174 18.983 23.520 18.512 23.735 C 18.041 23.950 17.519 24.025 17.006 23.951 C 16.494 23.878 16.014 23.658 15.623 23.319 C 15.231 22.980 14.946 22.536 14.800 22.039 C 14.654 21.543 14.654 21.015 14.800 20.518 C 14.946 20.021 15.231 19.577 15.623 19.238 C 16.014 18.899 16.494 18.680 17.006 18.606 C 17.519 18.532 18.041 18.608 18.512 18.823 C 18.983 19.038 19.382 19.383 19.662 19.819 C 19.942 20.254 20.091 20.761 20.091 21.279 Z" stroke="rgb(255,0,255)" stroke-width="0.20" />
  <path d="M 29.691 21.279 C 29.691 21.796 29.542 22.303 29.262 22.738 C 28.982 23.174 28.583 23.520 28.112 23.735 C 27.641 23.950 27.119 24.025 26.606 23.951 C 26.094 23.878 25.614 23.658 25.223 23.319 C 24.831 22.980 24.546 22.536 24.400 22.039 C 24.254 21.543 24.254 21.015 24.400 20.518 C 24.546 20.021 24.831 19.577 25.223 19.238 C 25.614 18.899 26.094 18.680 26.606 18.606 C 27.119 18.532 27.641 18.608 28.112 18.823 C 28.583 19.038 28.982 19.383 29.262 19.819 C 29.542 20.254 29.691 20.761 29.691 21.279 Z" stroke="rgb(255,0,255)" stroke-width="0.20" />
  <path d="M 39.291 21.279 C 39.291 21.796 39.142 22.303 38.862 22.738 C 38.582 23.174 38.183 23.520 37.712 23.735 C 37.241 23.950 36.719 24.025 36.206 23.951 C 35.694 23.878 35.214 23.658 34.823 23.319 C 34.431 22.980 34.146 22.536 34.000 22.039 C 33.854 21.543 33.854 21.015 34.000 20.518 C 34.146 20.021 34.431 19.577 34.823 19.238 C 35.214 18.899 35.694 18.680 36.206 18.606 C 36.719 18.532 37.241 18.608 37.712 18.823 C 38.183 19.038 38.582 19.383 38.862 19.819 C 39.142 20.254 39.291 20.761 39.291 21.279 Z" stroke="rgb(255,0,255)" stroke-width="0.20" />
  <path d="M 48.891 21.279 C 48.891 21.796 48.742 22.303 48.462 22.738 C 48.182 23.174 47.783 23.520 47.312 23.735 C 46.841 23.950 46.319 24.025 45.806 23.951 C 45.294 23.878 44.814 23.658 44.423 23.319 C 44.031 22.980 43.746 22.536 43.600 22.039 C 43.454 21.543 43.454 21.015 43.600 20.518 C 43.746 20.021 44.031 19.577 44.423 19.238 C 44.814 18.899 45.294 18.680 45.806 18.606 C 46.319 18.532 46.841 18.608 47.312 18.823 C 47.783 19.038 48.182 19.383 48.462 19.819 C 48.742 20.254 48.891 20.761 48.891 21.279 Z" stroke="rgb(255,0,255)" stroke-width="0.20" />
  <path d="M 58.491 21.279 C 58.491 21.796 58.342 22.303 58.062 22.738 C 57.782 23.174 57.383 23.520 56.912 23.735 C 56.441 23.950 55.919 24.025 55.406 23.951 C 54.894 23.878 54.414 23.658 54.023 23.319 C 53.631 22.980 53.346 22.536 53.200 22.039 C 53.054 21.543 53.054 21.015 53.200 20.518 C 53.346 20.021 53.631 19.577 54.023 19.238 C 54.414 18.899 54.894 18.680 55.406 18.606 C 55.919 18.532 56.441 18.608 56.912 18.823 C 57.383 19.038 57.782 19.383 58.062 19.819 C 58.342 20.254 58.491 20.761 58.491 21.279 Z" stroke="rgb(255,0,255)" stroke-width="0.20" />
  <path d="M 68.091 21.279 C 68.091 21.796 67.942 22.303 67.662 22.738 C 67.382 23.174 66.983 23.520 66.512 23.735 C 66.041 23.950 65.519 24.025 65.006 23.951 C 64.494 23.878 64.014 23.658 63.623 23.319 C 63.231 22.980 62.946 22.536 62.800 22.039 C 62.654 21.543 62.654 21.015 62.800 20.518 C 62.946 20.021 63.231 19.577 63.623 19.238 C 64.014 18.899 64.494 18.680 65.006 18.606 C 65.519 18.532 66.041 18.608 66.512 18.823 C 66.983 19.038 67.382 19.383 67.662 19.819 C 67.942 20.254 68.091 20.761 68.091 21.279 Z" stroke="rgb(255,0,255)" stroke-width="0.20" />
  <path d="M 77.691 21.279 C 77.691 21.796 77.542 22.303 77.262 22.738 C 76.982 23.174 76.583 23.520 76.112 23.735 C 75.641 23.950 75.119 24.025 74.606 23.951 C 74.094 23.878 73.614 23.658 73.223 23.319 C 72.831 22.980 72.546 22.536 72.400 22.039 C 72.254 21.543 72.254 21.015 72.400 20.518 C 72.546 20.021 72.831 19.577 73.223 19.238 C 73.614 18.899 74.094 18.680 74.606 18.606 C 75.119 18.532 75.641 18.608 76.112 18.823 C 76.583 19.038 76.982 19.383 77.262 19.819 C 77.542 20.254 77.691 20.761 77.691 21.279 Z" stroke="rgb(255,0,255)" stroke-width="0.20" />
  <path d="M 87.291 21.279 C 87.291 21.796 87.142 22.303 86.862 22.738 C 86.582 23.174 86.183 23.520 85.712 23.735 C 85.241 23.950 84.719 24.025 84.206 23.951 C 83.694 23.878 83.214 23.658 82.823 23.319 C 82.431 22.980 82.146 22.536 82.000 22.039 C 81.854 21.543 81.854 21.015 82.000 20.518 C 82.146 20.021 82.431 19.577 82.823 19.238 C 83.214 18.899 83.694 18.680 84.206 18.606 C 84.719 18.532 85.241 18.608 85.712 18.823 C 86.183 19.038 86.582 19.383 86.862 19.819 C 87.142 20.254 87.291 20.761 87.291 21.279 Z" stroke="rgb(255,0,255)" stroke-width="0.20" />
  <path d="M 96.891 21.279 C 96.891 21.796 96.742 22.303 96.462 22.738 C 96.182 23.174 95.783 23.520 95.312 23.735 C 94.841 23.950 94.319 24.025 93.806 23.951 C 93.294 23.878 92.814 23.658 92.423 23.319 C 92.031 22.980 91.746 22.536 91.600 22.039 C 91.454 21.543 91.454 21.015 91.600 20.518 C 91.746 20.021 92.031 19.577 92.423 19.238 C 92.814 18.899 93.294 18.680 93.806 18.606 C 94.319 18.532 94.841 18.608 95.312 18.823 C 95.783 19.038 96.182 19.383 96.462 19.819 C 96.742 20.254 96.891 20.761 96.891 21.279 Z" stroke="rgb(255,0,255)" stroke-width="0.20" />
  <path d="M 15.291 12.673 C 15.291 13.190 15.142 13.697 14.862 14.132 C 14.582 14.568 14.183 14.914 13.712 15.129 C 13.241 15.344 12.719 15.419 12.206 15.345 C 11.694 15.271 11.214 15.052 10.823 14.713 C 10.431 14.374 10.146 13.930 10.000 13.433 C 9.854 12.937 9.854 12.408 10.000 11.912 C 10.146 11.415 10.431 10.971 10.823 10.632 C 11.214 10.293 11.694 10.074 12.206 10.000 C 12.719 9.926 13.241 10.001 13.712 10.217 C 14.183 10.432 14.582 10.777 14.862 11.213 C 15.142 11.648 15.291 12.155 15.291 12.673 Z" stroke="rgb(255,0,255)" stroke-width="0.20" />
  <path d="M 24.891 12.673 C 24.891 13.190 24.742 13.697 24.462 14.132 C 24.182 14.568 23.783 14.914 23.312 15.129 C 22.841 15.344 22.319 15.419 21.806 15.345 C 21.294 15.271 20.814 15.052 20.423 14.713 C 20.031 14.374 19.746 13.930 19.600 13.433 C 19.454 12.937 19.454 12.408 19.600 11.912 C 19.746 11.415 20.031 10.971 20.423 10.632 C 20.814 10.293 21.294 10.074 21.806 10.000 C 22.319 9.926 22.841 10.001 23.312 10.217 C 23.783 10.432 24.182 10.777 24.462 11.213 C 24.742 11.648 24.891 12.155 24.891 12.673 Z" stroke="rgb(255,0,255)" stroke-width="0.20" />
  <path d="M 34.491 12.673 C 34.491 13.190 34.342 13.697 34.062 14.132 C 33.782 14.568 33.383 14.914 32.912 15.129 C 32.441 15.344 31.919 15.419 31.406 15.345 C 30.894 15.271 30.414 15.052 30.023 14.713 C 29.631 14.374 29.346 13.930 29.200 13.433 C 29.054 12.937 29.054 12.408 29.200 11.912 C 29.346 11.415 29.631 10.971 30.023 10.632 C 30.414 10.293 30.894 10.074 31.406 10.000 C 31.919 9.926 32.441 10.001 32.912 10.217 C 33.383 10.432 33.782 10.777 34.062 11.213 C 34.342 11.648 34.491 12.155 34.491 12.673 Z" stroke="rgb(255,0,255)" stroke-width="0.20" />
  <path d="M 44.091 12.673 C 44.091 13.190 43.942 13.697 43.662 14.132 C 43.382 14.568 42.983 14.914 42.512 15.129 C 42.041 15.344 41.519 15.419 41.006 15.345 C 40.494 15.271 40.014 15.052 39.623 14.713 C 39.231 14.374 38.946 13.930 38.800 13.433 C 38.654 12.937 38.654 12.408 38.800 11.912 C 38.946 11.415 39.231 10.971 39.623 10.632 C 40.014 10.293 40.494 10.074 41.006 10.000 C 41.519 9.926 42.041 10.001 42.512 10.217 C 42.983 10.432 43.382 10.777 43.662 11.213 C 43.942 11.648 44.091 12.155 44.091 12.673 Z" stroke="rgb(255,0,255)" stroke-width="0.20" />
  <path d="M 53.691 12.673 C 53.691 13.190 53.542 13.697 53.262 14.132 C 52.982 14.568 52.583 14.914 52.112 15.129 C 51.641 15.344 51.119 15.419 50.606 15.345 C 50.094 15.271 49.614 15.052 49.223 14.713 C 48.831 14.374 48.546 13.930 48.400 13.433 C 48.254 12.937 48.254 12.408 48.400 11.912 C 48.546 11.415 48.831 10.971 49.223 10.632 C 49.614 10.293 50.094 10.074 50.606 10.000 C 51.119 9.926 51.641 10.001 52.112 10.217 C 52.583 10.432 52.982 10.777 53.262 11.213 C 53.542 11.648 53.691 12.155 53.691 12.673 Z" stroke="rgb(255,0,255)" stroke-width="0.20" />
  <path d="M 63.291 12.673 C 63.291 13.190 63.142 13.697 62.862 14.132 C 62.582 14.568 62.183 14.914 61.712 15.129 C 61.241 15.344 60.719 15.419 60.206 15.345 C 59.694 15.271 59.214 15.052 58.823 14.713 C 58.431 14.374 58.146 13.930 58.000 13.433 C 57.854 12.937 57.854 12.408 58.000 11.912 C 58.146 11.415 58.431 10.971 58.823 10.632 C 59.214 10.293 59.694 10.074 60.206 10.000 C 60.719 9.926 61.241 10.001 61.712 10.217 C 62.183 10.432 62.582 10.777 62.862 11.213 C 63.142 11.648 63.291 12.155 63.291 12.673 Z" stroke="rgb(255,0,255)" stroke-width="0.20" />
  <path d="M 72.891 12.673 C 72.891 13.190 72.742 13.697 72.462 14.132 C 72.182 14.568 71.783 14.914 71.312 15.129 C 70.841 15.344 70.319 15.419 69.806 15.345 C 69.294 15.271 68.814 15.052 68.423 14.713 C 68.031 14.374 67.746 13.930 67.600 13.433 C 67.454 12.937 67.454 12.408 67.600 11.912 C 67.746 11.415 68.031 10.971 68.423 10.632 C 68.814 10.293 69.294 10.074 69.806 10.000 C 70.319 9.926 70.841 10.001 71.312 10.217 C 71.783 10.432 72.182 10.777 72.462 11.213 C 72.742 11.648 72.891 12.155 72.891 12.673 Z" stroke="rgb(255,0,255)" stroke-width="0.20" />
  <path d="M 82.491 12.673 C 82.491 13.190 82.342 13.697 82.062 14.132 C 81.782 14.568 81.383 14.914 80.912 15.129 C 80.441 15.344 79.919 15.419 79.406 15.345 C 78.894 15.271 78.414 15.052 78.023 14.713 C 77.631 14.374 77.346 13.930 77.200 13.433 C 77.054 12.937 77.054 12.408 77.200 11.912 C 77.346 11.415 77.631 10.971 78.023 10.632 C 78.414 10.293 78.894 10.074 79.406 10.000 C 79.919 9.926 80.441 10.001 80.912 10.217 C 81.383 10.432 81.782 10.777 82.062 11.213 C 82.342 11.648 82.491 12.155 82.491 12.673 Z" stroke="rgb(255,0,255)" stroke-width="0.20" />
  <path d="M 92.091 12.673 C 92.091 13.190 91.942 13.697 91.662 14.132 C 91.382 14.568 90.983 14.914 90.512 15.129 C 90.041 15.344 89.519 15.419 89.006 15.345 C 88.494 15.271 88.014 15.052 87.623 14.713 C 87.231 14.374 86.946 13.930 86.800 13.433 C 86.654 12.937 86.654 12.408 86.800 11.912 C 86.946 11.415 87.231 10.971 87.623 10.632 C 88.014 10.293 88.494 10.074 89.006 10.000 C 89.519 9.926 90.041 10.001 90.512 10.217 C 90.983 10.432 91.382 10.777 91.662 11.213 C 91.942 11.648 92.091 12.155 92.091 12.673 Z" stroke="rgb(255,0,255)" stroke-width="0.20" />
  <path d="M 101.691 12.673 C 101.691 13.190 101.542 13.697 101.262 14.132 C 100.982 14.568 100.583 14.914 100.112 15.129 C 99.641 15.344 99.119 15.419 98.606 15.345 C 98.094 15.271 97.614 15.052 97.223 14.713 C 96.831 14.374 96.546 13.930 96.400 13.433 C 96.254 12.937 96.254 12.408 96.400 11.912 C 96.546 11.415 96.831 10.971 97.223 10.632 C 97.614 10.293 98.094 10.074 98.606 10.000 C 99.119 9.926 99.641 10.001 100.112 10.217 C 100.583 10.432 100.982 10.777 101.262 11.213 C 101.542 11.648 101.691 12.155 101.691 12.673 Z" stroke="rgb(255,0,255)" stroke-width="0.20" />
</g>
</svg>